<svg width="64" height="64" viewBox="0 0 64 64" fill="none" xmlns="http://www.w3.org/2000/svg">
<path d="M14 51H7V57H14V51Z" fill="#ED1C24" id="id_117"></path>
<path d="M25 48H18V57H25V48Z" fill="#FBB03B" id="id_118"></path>
<path d="M36 43H29V57H36V43Z" fill="#F8CF26" id="id_119"></path>
<path d="M47 36H40V57H47V36Z" fill="#39B54A" id="id_120"></path>
<path d="M58 22H51V57H58V22Z" fill="#0071BC" id="id_121"></path>
<path d="M20 8H7V10H20V8Z" fill="#ebd26c" id="id_122"></path>
<path d="M20 12H7V14H20V12Z" fill="#ED1C24" id="id_123"></path>
<path d="M16 16H7V18H16V16Z" fill="#39B54A" id="id_124"></path>
<path d="M16 20H7V22H16V20Z" fill="#0071BC" id="id_125"></path>
<path d="M62 60H2V62H62V60Z" fill="black" id="id_126"></path>
<path d="M53.549 10.1739L55.163 5.56195L58.105 11.4469C58.1637 11.5645 58.245 11.6693 58.3442 11.7554C58.4434 11.8415 58.5586 11.9073 58.6832 11.9489C58.8078 11.9905 58.9394 12.0071 59.0705 11.9979C59.2015 11.9886 59.3295 11.9537 59.447 11.8949C59.5645 11.8362 59.6694 11.755 59.7555 11.6558C59.8416 11.5566 59.9073 11.4413 59.9489 11.3167C59.9905 11.1921 60.0072 11.0605 59.9979 10.9295C59.9887 10.7984 59.9537 10.6705 59.895 10.5529L55.895 2.55295C55.8363 2.43538 55.7551 2.33052 55.6559 2.24437C55.5567 2.15821 55.4415 2.09245 55.3168 2.05085C55.1922 2.00924 55.0606 1.99261 54.9295 2.00189C54.7985 2.01117 54.6705 2.04619 54.553 2.10495L46.553 6.10495C46.3156 6.2235 46.1351 6.43149 46.0511 6.68317C45.967 6.93484 45.9864 7.20958 46.105 7.44695C46.2236 7.68432 46.4315 7.86487 46.6832 7.94889C46.9349 8.0329 47.2096 8.0135 47.447 7.89495L53.241 4.99995L51.66 9.51395C48.2578 19.2033 42.1321 27.7052 34.018 33.9996C25.9039 40.294 16.146 44.1135 5.915 45L6.085 47C16.7014 46.0802 26.8268 42.1164 35.246 35.5842C43.6652 29.052 50.0204 20.2289 53.549 10.1739V10.1739Z" fill="black" id="id_127"></path>
<path d="M7 50C6.73478 50 6.48043 50.1054 6.29289 50.2929C6.10536 50.4804 6 50.7348 6 51V57C6 57.2652 6.10536 57.5196 6.29289 57.7071C6.48043 57.8946 6.73478 58 7 58H14C14.2652 58 14.5196 57.8946 14.7071 57.7071C14.8946 57.5196 15 57.2652 15 57V51C15 50.7348 14.8946 50.4804 14.7071 50.2929C14.5196 50.1054 14.2652 50 14 50H7ZM13 56H8V52H13V56Z" fill="black" id="id_128"></path>
<path d="M18 47C17.7348 47 17.4804 47.1054 17.2929 47.2929C17.1054 47.4804 17 47.7348 17 48V57C17 57.2652 17.1054 57.5196 17.2929 57.7071C17.4804 57.8946 17.7348 58 18 58H25C25.2652 58 25.5196 57.8946 25.7071 57.7071C25.8946 57.5196 26 57.2652 26 57V48C26 47.7348 25.8946 47.4804 25.7071 47.2929C25.5196 47.1054 25.2652 47 25 47H18ZM24 56H19V49H24V56Z" fill="black" id="id_129"></path>
<path d="M29 42C28.7348 42 28.4804 42.1054 28.2929 42.2929C28.1054 42.4804 28 42.7348 28 43V57C28 57.2652 28.1054 57.5196 28.2929 57.7071C28.4804 57.8946 28.7348 58 29 58H36C36.2652 58 36.5196 57.8946 36.7071 57.7071C36.8946 57.5196 37 57.2652 37 57V43C37 42.7348 36.8946 42.4804 36.7071 42.2929C36.5196 42.1054 36.2652 42 36 42H29ZM35 56H30V44H35V56Z" fill="black" id="id_130"></path>
<path d="M40 35C39.7348 35 39.4804 35.1054 39.2929 35.2929C39.1054 35.4804 39 35.7348 39 36V57C39 57.2652 39.1054 57.5196 39.2929 57.7071C39.4804 57.8946 39.7348 58 40 58H47C47.2652 58 47.5196 57.8946 47.7071 57.7071C47.8946 57.5196 48 57.2652 48 57V36C48 35.7348 47.8946 35.4804 47.7071 35.2929C47.5196 35.1054 47.2652 35 47 35H40ZM46 56H41V37H46V56Z" fill="black" id="id_131"></path>
<path d="M51 21C50.7348 21 50.4804 21.1054 50.2929 21.2929C50.1054 21.4804 50 21.7348 50 22V57C50 57.2652 50.1054 57.5196 50.2929 57.7071C50.4804 57.8946 50.7348 58 51 58H58C58.2652 58 58.5196 57.8946 58.7071 57.7071C58.8946 57.5196 59 57.2652 59 57V22C59 21.7348 58.8946 21.4804 58.7071 21.2929C58.5196 21.1054 58.2652 21 58 21H51ZM57 56H52V23H57V56Z" fill="black" id="id_132"></path>
</svg>